<?xml version="1.0" standalone="no"?><!-- Generator: Gravit.io --><svg xmlns="http://www.w3.org/2000/svg" xmlns:xlink="http://www.w3.org/1999/xlink" style="isolation:isolate" viewBox="0 0 1050.34 1100" width="1050.34" height="1100"><path d=" M 559.926 18.27 L 635.353 127.85 C 646.168 143.562 666.18 150.065 684.165 143.71 L 809.596 99.392 C 837.48 89.54 866.585 110.686 865.832 140.25 L 862.443 273.237 C 861.957 292.306 874.325 309.328 892.61 314.759 L 1020.135 352.632 C 1048.484 361.051 1059.601 395.266 1041.615 418.741 L 960.706 524.338 C 949.105 539.479 949.105 560.52 960.706 575.662 L 1041.615 681.259 C 1059.601 704.734 1048.484 738.949 1020.135 747.368 L 892.61 785.241 C 874.325 790.671 861.957 807.694 862.443 826.763 L 865.832 959.75 C 866.585 989.314 837.48 1010.46 809.596 1000.607 L 684.165 956.289 C 666.18 949.935 646.168 956.437 635.353 972.149 L 559.926 1081.729 C 543.159 1106.09 507.182 1106.09 490.415 1081.729 L 414.988 972.149 C 404.173 956.437 384.161 949.935 366.176 956.289 L 240.745 1000.607 C 212.861 1010.459 183.756 989.313 184.509 959.75 L 187.898 826.763 C 188.384 807.694 176.016 790.671 157.73 785.241 L 30.205 747.368 C 1.856 738.949 -9.261 704.733 8.725 681.259 L 89.634 575.662 C 101.236 560.52 101.236 539.479 89.634 524.338 L 8.725 418.741 C -9.261 395.266 1.856 361.051 30.205 352.632 L 157.73 314.759 C 176.015 309.328 188.383 292.306 187.898 273.237 L 184.509 140.25 C 183.756 110.686 212.861 89.54 240.745 99.392 L 366.176 143.71 C 384.161 150.064 404.173 143.562 414.988 127.85 L 490.415 18.27 C 507.182 -6.09 543.158 -6.09 559.926 18.27 Z " fill="rgb(255,194,15)"/><path d=" M 383.046 419.141 C 384.605 419.218 389.937 419.753 394.941 420.135 C 466.555 426.479 536.857 474.48 580.416 546.558 C 583.862 552.367 589.112 561.921 591.983 567.883 C 594.854 573.845 597.643 578.66 598.217 578.66 C 598.71 578.584 605.354 576.215 612.901 573.463 C 637.429 564.444 651.703 562.151 673.277 563.679 C 708.305 566.202 739.395 576.138 769.009 594.253 C 795.26 610.228 819.541 633.464 836.276 658.611 C 843.987 670.229 852.764 687.886 857.604 701.72 C 860.065 708.676 862.116 714.867 862.116 715.555 C 862.116 717.007 862.772 717.007 872.452 715.096 C 900.835 709.593 940.293 715.631 969.333 730.078 C 992.466 741.543 1012.646 759.123 1026.017 779.531 C 1051.529 818.36 1056.943 870.335 1040.455 916.196 C 1024.541 960.299 989.349 995.841 945.215 1012.428 C 924.215 1020.377 910.597 1022.746 887.546 1022.746 C 872.37 1022.746 869.745 1022.593 860.229 1020.682 C 847.514 1018.16 830.78 1013.115 817.736 1007.841 L 807.975 1003.943 L 800.838 1010.058 C 776.064 1031.001 749.403 1046.059 720.364 1055.384 C 700.922 1061.575 684.269 1064.632 662.039 1066.008 C 613.721 1069.066 565.979 1056.607 519.384 1028.785 L 512.575 1024.734 L 504.618 1031.307 C 479.762 1051.791 448.59 1065.091 412.988 1070.365 C 400.437 1072.199 372.628 1072.199 361.717 1070.365 C 323.08 1063.792 290.185 1046.594 260.243 1017.625 C 251.63 1009.217 239.571 995.153 234.239 987.204 L 231.86 983.688 L 217.832 989.956 C 192.648 1001.268 180.507 1004.784 164.675 1005.396 C 117.424 1007.23 70.502 984.223 39.74 944.095 C 2.989 896.17 -9.48 825.85 7.419 762.18 C 24.728 696.905 71.322 648.216 129.975 634.152 C 135.226 632.853 140.394 631.859 141.46 631.859 C 142.526 631.859 143.593 631.553 143.839 631.171 C 144.167 630.789 145.069 626.585 145.972 621.77 C 164.101 524.774 234.895 446.811 324.393 425.103 C 345.475 419.982 367.624 417.765 383.046 419.141 Z " fill="rgb(202,232,249)"/></svg>