<?xml version="1.0" standalone="no"?><!-- Generator: Gravit.io --><svg xmlns="http://www.w3.org/2000/svg" xmlns:xlink="http://www.w3.org/1999/xlink" style="isolation:isolate" viewBox="585.541 601.007 25 25" width="25" height="25"><path d=" M 600.541 616.007 L 608.041 616.007 C 609.42 616.007 610.541 614.887 610.541 613.507 L 610.541 613.507 C 610.541 612.127 609.42 611.007 608.041 611.007 L 600.541 611.007 L 600.541 603.507 C 600.541 602.127 599.42 601.007 598.041 601.007 L 598.041 601.007 C 596.661 601.007 595.541 602.127 595.541 603.507 L 595.541 611.007 L 588.041 611.007 C 586.661 611.007 585.541 612.127 585.541 613.507 L 585.541 613.507 C 585.541 614.887 586.661 616.007 588.041 616.007 L 595.541 616.007 L 595.541 623.507 C 595.541 624.887 596.661 626.007 598.041 626.007 L 598.041 626.007 C 599.42 626.007 600.541 624.887 600.541 623.507 L 600.541 616.007 Z " fill-rule="evenodd" fill="rgb(55,117,66)"/></svg>