<?xml version="1.0" standalone="no"?><!-- Generator: Gravit.io --><svg xmlns="http://www.w3.org/2000/svg" xmlns:xlink="http://www.w3.org/1999/xlink" style="isolation:isolate" viewBox="415.008 536.508 79.984 79.984" width="79.984" height="79.984"><path d=" M 426.716 548.216 C 442.326 532.605 467.674 532.605 483.284 548.216 C 498.895 563.826 498.895 589.174 483.284 604.784 C 467.674 620.395 442.326 620.395 426.716 604.784 C 411.105 589.174 411.105 563.826 426.716 548.216 Z  M 455 583.288 L 465.182 593.471 C 467.056 595.344 470.097 595.344 471.971 593.471 L 471.971 593.471 C 473.844 591.597 473.844 588.556 471.971 586.682 L 461.788 576.5 L 471.971 566.318 C 473.844 564.444 473.844 561.403 471.971 559.529 L 471.971 559.529 C 470.097 557.656 467.056 557.656 465.182 559.529 L 455 569.712 L 444.818 559.529 C 442.944 557.656 439.903 557.656 438.029 559.529 L 438.029 559.529 C 436.156 561.403 436.156 564.444 438.029 566.318 L 448.212 576.5 L 438.029 586.682 C 436.156 588.556 436.156 591.597 438.029 593.471 L 438.029 593.471 C 439.903 595.344 442.944 595.344 444.818 593.471 L 455 583.288 Z " fill-rule="evenodd" fill="rgb(195,74,74)"/></svg>