<?xml version="1.0" standalone="no"?><!-- Generator: Gravit.io --><svg xmlns="http://www.w3.org/2000/svg" xmlns:xlink="http://www.w3.org/1999/xlink" style="isolation:isolate" viewBox="558.041 573.507 80 80" width="80" height="80"><path d=" M 558.041 613.507 C 558.041 591.431 575.964 573.507 598.041 573.507 C 620.117 573.507 638.041 591.431 638.041 613.507 C 638.041 635.584 620.117 653.507 598.041 653.507 C 575.964 653.507 558.041 635.584 558.041 613.507 Z  M 602.841 618.307 L 617.241 618.307 C 619.89 618.307 622.041 616.156 622.041 613.507 L 622.041 613.507 C 622.041 610.858 619.89 608.707 617.241 608.707 L 602.841 608.707 L 602.841 594.307 C 602.841 591.658 600.69 589.507 598.041 589.507 L 598.041 589.507 C 595.391 589.507 593.241 591.658 593.241 594.307 L 593.241 608.707 L 578.841 608.707 C 576.191 608.707 574.041 610.858 574.041 613.507 L 574.041 613.507 C 574.041 616.156 576.191 618.307 578.841 618.307 L 593.241 618.307 L 593.241 632.707 C 593.241 635.356 595.391 637.507 598.041 637.507 L 598.041 637.507 C 600.69 637.507 602.841 635.356 602.841 632.707 L 602.841 618.307 Z " fill-rule="evenodd" fill="rgb(8,75,123)"/></svg>