<?xml version="1.0" standalone="no"?><!-- Generator: Gravit.io --><svg xmlns="http://www.w3.org/2000/svg" xmlns:xlink="http://www.w3.org/1999/xlink" style="isolation:isolate" viewBox="558.041 573.507 80 80" width="80" height="80"><path d=" M 558.041 613.507 C 558.041 591.431 575.964 573.507 598.041 573.507 C 620.117 573.507 638.041 591.431 638.041 613.507 C 638.041 635.584 620.117 653.507 598.041 653.507 C 575.964 653.507 558.041 635.584 558.041 613.507 Z  M 582.929 617.697 L 620.732 617.697 C 623.11 617.697 625.041 615.927 625.041 613.747 L 625.041 613.747 C 625.041 611.567 623.11 609.797 620.732 609.797 L 582.447 609.797 L 598.162 594.164 C 599.692 592.642 599.692 590.171 598.162 588.649 L 598.162 588.649 C 596.632 587.127 594.148 587.127 592.618 588.649 L 570.44 610.711 C 569.751 611.396 569.372 612.275 569.304 613.172 C 569.203 614.291 569.579 615.448 570.44 616.304 L 592.618 638.366 C 594.148 639.888 596.632 639.888 598.162 638.366 L 598.162 638.366 C 599.692 636.844 599.692 634.372 598.162 632.85 L 582.929 617.697 Z " fill-rule="evenodd" fill="rgb(195,74,74)"/></svg>