<?xml version="1.0" standalone="no"?><!-- Generator: Gravit.io --><svg xmlns="http://www.w3.org/2000/svg" xmlns:xlink="http://www.w3.org/1999/xlink" style="isolation:isolate" viewBox="562.265 572.833 71.551 81.348" width="71.551" height="81.348"><path d=" M 632.998 633.757 C 629.649 639.539 615.502 630.453 609.71 633.785 C 603.918 637.118 604.665 653.916 597.983 653.906 C 591.301 653.897 592.096 637.102 586.314 633.752 C 580.532 630.403 566.358 639.449 563.025 633.657 C 559.693 627.865 574.635 620.156 574.645 613.474 C 574.654 606.792 559.734 599.04 563.083 593.258 C 566.432 587.476 580.58 596.562 586.372 593.229 C 592.163 589.896 591.416 573.099 598.098 573.108 C 604.78 573.118 603.985 589.913 609.768 593.262 C 615.55 596.612 629.723 587.566 633.056 593.358 C 636.389 599.149 621.446 606.858 621.437 613.541 C 621.427 620.223 636.348 627.974 632.998 633.757 Z  M 588.918 613.507 C 588.918 608.472 593.006 604.385 598.041 604.385 C 603.075 604.385 607.163 608.472 607.163 613.507 C 607.163 618.542 603.075 622.63 598.041 622.63 C 593.006 622.63 588.918 618.542 588.918 613.507 Z " fill-rule="evenodd" fill="rgb(96,96,96)" vector-effect="non-scaling-stroke" stroke-width="0.138" stroke="rgb(0,0,0)" stroke-linejoin="miter" stroke-linecap="butt" stroke-miterlimit="4"/></svg>