<?xml version="1.0" standalone="no"?><!-- Generator: Gravit.io --><svg xmlns="http://www.w3.org/2000/svg" xmlns:xlink="http://www.w3.org/1999/xlink" style="isolation:isolate" viewBox="0 0 1189.825 1100" width="1189.825" height="1100"><defs><clipPath id="_clipPath_S2YWhuGhyGLP9gzZ5UdWn7jpXUPRye5X"><rect width="1189.825" height="1100"/></clipPath></defs><g clip-path="url(#_clipPath_S2YWhuGhyGLP9gzZ5UdWn7jpXUPRye5X)"><path d=" M 651.207 18.27 L 726.634 127.85 C 737.449 143.562 757.461 150.065 775.446 143.71 L 900.877 99.392 C 928.761 89.54 957.866 110.686 957.113 140.25 L 953.724 273.237 C 953.238 292.306 965.606 309.328 983.891 314.759 L 1111.416 352.632 C 1139.765 361.051 1150.882 395.266 1132.896 418.741 L 1051.987 524.338 C 1040.386 539.479 1040.386 560.52 1051.987 575.662 L 1132.896 681.259 C 1150.882 704.734 1139.765 738.949 1111.416 747.368 L 983.891 785.241 C 965.606 790.671 953.238 807.694 953.724 826.763 L 957.113 959.75 C 957.866 989.314 928.761 1010.46 900.877 1000.607 L 775.446 956.289 C 757.461 949.935 737.449 956.437 726.634 972.149 L 651.207 1081.729 C 634.44 1106.09 598.463 1106.09 581.696 1081.729 L 506.269 972.149 C 495.454 956.437 475.442 949.935 457.457 956.289 L 332.026 1000.607 C 304.142 1010.459 275.037 989.313 275.79 959.75 L 279.179 826.763 C 279.665 807.694 267.297 790.671 249.011 785.241 L 121.486 747.368 C 93.137 738.949 82.02 704.733 100.006 681.259 L 180.915 575.662 C 192.517 560.52 192.517 539.479 180.915 524.338 L 100.006 418.741 C 82.02 395.266 93.137 361.051 121.486 352.632 L 249.011 314.759 C 267.296 309.328 279.664 292.306 279.179 273.237 L 275.79 140.25 C 275.037 110.686 304.142 89.54 332.026 99.392 L 457.457 143.71 C 475.442 150.064 495.454 143.562 506.269 127.85 L 581.696 18.27 C 598.463 -6.09 634.439 -6.09 651.207 18.27 Z " fill="rgb(255,194,15)"/><g><path d=" M 1189.825 467.8 C 1189.825 513.282 1151.284 550 1105.799 550 L 886.6 550 C 841.115 550 804.401 513.282 804.401 467.8 L 804.401 440.401 L 722.201 440.401 C 676.716 440.401 640.002 403.687 640.002 358.201 C 640.002 312.716 676.716 274.175 722.201 274.175 L 941.4 274.175 C 986.885 274.175 1023.599 312.716 1023.599 358.201 L 1023.599 385.601 L 1105.799 385.601 C 1151.284 385.601 1189.825 422.315 1189.825 467.8 Z " fill="rgb(202,232,249)"/><path d=" M 1189.825 467.8 C 1189.825 513.282 1151.284 550 1105.799 550 L 886.6 550 C 841.115 550 804.401 513.282 804.401 467.8 L 804.401 440.401 L 722.201 440.401 L 722.201 274.175 L 941.4 274.175 C 986.885 274.175 1023.599 312.716 1023.599 358.201 L 1023.599 385.601 L 1105.799 385.601 C 1151.284 385.601 1189.825 422.315 1189.825 467.8 Z " fill="rgb(183,224,246)"/></g><path d=" M 914.913 960.784 C 914.913 1005.277 877.211 1041.196 832.714 1041.196 L 135.807 1041.196 C 91.311 1041.196 55.395 1005.277 55.395 960.784 C 55.395 916.287 91.311 880.371 135.807 880.371 L 243.024 880.371 C 272.508 880.371 296.632 856.248 296.632 826.763 C 296.632 797.278 272.508 773.155 243.024 773.155 L 82.199 773.155 C 37.703 773.155 0 737.235 0 692.742 C 0 648.246 37.703 612.33 82.199 612.33 L 564.673 612.33 C 609.17 612.33 645.085 648.246 645.085 692.742 C 645.085 737.235 609.17 773.155 564.673 773.155 L 511.065 773.155 C 481.58 773.155 457.457 797.278 457.457 826.763 C 457.457 856.248 481.58 880.371 511.065 880.371 L 832.714 880.371 C 877.211 880.371 914.913 916.287 914.913 960.784 Z " fill="rgb(202,232,249)"/></g></svg>