<?xml version="1.0" standalone="no"?><!-- Generator: Gravit.io --><svg xmlns="http://www.w3.org/2000/svg" xmlns:xlink="http://www.w3.org/1999/xlink" style="isolation:isolate" viewBox="415 536.5 80 80" width="80" height="80"><path d=" M 415 576.5 C 415 554.423 432.923 536.5 455 536.5 C 477.077 536.5 495 554.423 495 576.5 C 495 598.577 477.077 616.5 455 616.5 C 432.923 616.5 415 598.577 415 576.5 Z  M 451.322 594.839 C 449.434 596.406 446.623 596.308 444.854 594.539 L 428.921 578.606 C 427.048 576.733 427.048 573.691 428.921 571.818 L 428.921 571.818 C 430.794 569.944 433.836 569.944 435.709 571.818 L 448.322 584.43 L 473.185 559.567 C 475.08 557.672 478.139 557.654 480.012 559.528 L 480.012 559.528 C 481.885 561.401 481.868 564.46 479.973 566.355 L 452.114 594.214 C 451.87 594.458 451.606 594.671 451.322 594.839 Z " fill-rule="evenodd" fill="rgb(0,125,23)"/></svg>